HIERARCHY
ROOT Hips
{
  OFFSET 5.84602e-005 68.8428 3.50346
  CHANNELS 6 Xposition Yposition Zposition Zrotation Xrotation Yrotation
  JOINT Spine
  {
    OFFSET 0 8.597 -4.6522
    CHANNELS 3 Zrotation Xrotation Yrotation
    JOINT Spine1
    {
      OFFSET 0 7.8454 0.4098
      CHANNELS 3 Zrotation Xrotation Yrotation
      JOINT Spine2
      {
        OFFSET 0 9.7078 -2.1609
        CHANNELS 3 Zrotation Xrotation Yrotation
        JOINT Neck
        {
          OFFSET 0 21.8761 -0.4549
          CHANNELS 3 Zrotation Xrotation Yrotation
          JOINT Head
          {
            OFFSET 0 12.3537 3.3602
            CHANNELS 3 Zrotation Xrotation Yrotation
            End Site
            {
              OFFSET 0.0001 18.9506 0.5657
            }
          }
        }
        JOINT LeftShoulder
        {
          OFFSET 2.2086 21.1115 7.2329
          CHANNELS 3 Zrotation Xrotation Yrotation
          JOINT LeftArm
          {
            OFFSET 13.1193 3.0282 -4.8998
            CHANNELS 3 Zrotation Xrotation Yrotation
            JOINT LeftForeArm
            {
              OFFSET 27.4081 -0.0973053 -0.2375
              CHANNELS 3 Zrotation Xrotation Yrotation
              JOINT LeftHand
              {
                OFFSET 22.8641 0.0662994 -0.1369
                CHANNELS 3 Zrotation Xrotation Yrotation
                JOINT LeftHandIndex1
                {
                  OFFSET 8.8614 0.775009 2.4612
                  CHANNELS 3 Zrotation Xrotation Yrotation
                  JOINT LeftHandIndex2
                  {
                    OFFSET 3.3146 -0.808304 0.5841
                    CHANNELS 3 Zrotation Xrotation Yrotation
                    JOINT LeftHandIndex3
                    {
                      OFFSET 2.2628 -0.552002 0.3989
                      CHANNELS 3 Zrotation Xrotation Yrotation
                      End Site
                      {
                        OFFSET 1.6102 -0.4807 0.2612
                      }
                    }
                  }
                }
                JOINT LeftHandMiddle1
                {
                  OFFSET 8.9937 0.895004 0.2143
                  CHANNELS 3 Zrotation Xrotation Yrotation
                  JOINT LeftHandMiddle2
                  {
                    OFFSET 4.0984 0.0113983 -0.0242
                    CHANNELS 3 Zrotation Xrotation Yrotation
                    JOINT LeftHandMiddle3
                    {
                      OFFSET 2.2716 0.00689697 -0.0138001
                      CHANNELS 3 Zrotation Xrotation Yrotation
                      End Site
                      {
                        OFFSET 2.0404 -0.1441 0.0027
                      }
                    }
                  }
                }
                JOINT LeftHandRing1
                {
                  OFFSET 8.5234 0.597198 -2.0164
                  CHANNELS 3 Zrotation Xrotation Yrotation
                  JOINT LeftHandRing2
                  {
                    OFFSET 3.7188 -0.188293 -0.2328
                    CHANNELS 3 Zrotation Xrotation Yrotation
                    JOINT LeftHandRing3
                    {
                      OFFSET 2.1191 -0.106598 -0.1332
                      CHANNELS 3 Zrotation Xrotation Yrotation
                      End Site
                      {
                        OFFSET 1.8737 -0.2304 -0.0886
                      }
                    }
                  }
                }
                JOINT LeftHandPinky1
                {
                  OFFSET 7.9094 -0.601089 -3.4825
                  CHANNELS 3 Zrotation Xrotation Yrotation
                  JOINT LeftHandPinky2
                  {
                    OFFSET 2.2874 -0.477005 -0.6314
                    CHANNELS 3 Zrotation Xrotation Yrotation
                    JOINT LeftHandPinky3
                    {
                      OFFSET 1.6774 -0.349396 -0.4633
                      CHANNELS 3 Zrotation Xrotation Yrotation
                      End Site
                      {
                        OFFSET 1.4888 -0.4091 -0.3416
                      }
                    }
                  }
                }
                JOINT LeftHandThumb1
                {
                  OFFSET 1.833 -1.3875 1.3896
                  CHANNELS 3 Zrotation Xrotation Yrotation
                  JOINT LeftHandThumb2
                  {
                    OFFSET 3.4129 -1.121 2.5732
                    CHANNELS 3 Zrotation Xrotation Yrotation
                    JOINT LeftHandThumb3
                    {
                      OFFSET 2.2474 -0.804199 1.6192
                      CHANNELS 3 Zrotation Xrotation Yrotation
                      End Site
                      {
                        OFFSET 1.6527 -0.5689 1.1317
                      }
                    }
                  }
                }
              }
            }
          }
        }
        JOINT RightShoulder
        {
          OFFSET -2.2086 21.1115 7.2329
          CHANNELS 3 Zrotation Xrotation Yrotation
          JOINT RightArm
          {
            OFFSET -13.1216 3.0287 -4.9007
            CHANNELS 3 Zrotation Xrotation Yrotation
            JOINT RightForeArm
            {
              OFFSET -27.4081 -0.0973053 -0.2375
              CHANNELS 3 Zrotation Xrotation Yrotation
              JOINT RightHand
              {
                OFFSET -22.8641 0.0664063 -0.1369
                CHANNELS 3 Zrotation Xrotation Yrotation
                JOINT RightHandIndex1
                {
                  OFFSET -8.8614 0.774994 2.4612
                  CHANNELS 3 Zrotation Xrotation Yrotation
                  JOINT RightHandIndex2
                  {
                    OFFSET -3.3146 -0.808304 0.5841
                    CHANNELS 3 Zrotation Xrotation Yrotation
                    JOINT RightHandIndex3
                    {
                      OFFSET -2.2628 -0.552002 0.3989
                      CHANNELS 3 Zrotation Xrotation Yrotation
                      End Site
                      {
                        OFFSET -1.6102 -0.4807 0.2612
                      }
                    }
                  }
                }
                JOINT RightHandMiddle1
                {
                  OFFSET -8.9937 0.894989 0.2143
                  CHANNELS 3 Zrotation Xrotation Yrotation
                  JOINT RightHandMiddle2
                  {
                    OFFSET -4.0984 0.0113983 -0.0242
                    CHANNELS 3 Zrotation Xrotation Yrotation
                    JOINT RightHandMiddle3
                    {
                      OFFSET -2.2716 0.00691223 -0.0138001
                      CHANNELS 3 Zrotation Xrotation Yrotation
                      End Site
                      {
                        OFFSET -2.0404 -0.1441 0.0027
                      }
                    }
                  }
                }
                JOINT RightHandRing1
                {
                  OFFSET -8.5234 0.597198 -2.0164
                  CHANNELS 3 Zrotation Xrotation Yrotation
                  JOINT RightHandRing2
                  {
                    OFFSET -3.7188 -0.188309 -0.2328
                    CHANNELS 3 Zrotation Xrotation Yrotation
                    JOINT RightHandRing3
                    {
                      OFFSET -2.1191 -0.106598 -0.1332
                      CHANNELS 3 Zrotation Xrotation Yrotation
                      End Site
                      {
                        OFFSET -1.8737 -0.2304 -0.0886
                      }
                    }
                  }
                }
                JOINT RightHandPinky1
                {
                  OFFSET -7.9094 -0.601105 -3.4825
                  CHANNELS 3 Zrotation Xrotation Yrotation
                  JOINT RightHandPinky2
                  {
                    OFFSET -2.2874 -0.477005 -0.6314
                    CHANNELS 3 Zrotation Xrotation Yrotation
                    JOINT RightHandPinky3
                    {
                      OFFSET -1.6774 -0.349396 -0.4633
                      CHANNELS 3 Zrotation Xrotation Yrotation
                      End Site
                      {
                        OFFSET -1.4888 -0.4091 -0.3416
                      }
                    }
                  }
                }
                JOINT RightHandThumb1
                {
                  OFFSET -1.833 -1.38751 1.3896
                  CHANNELS 3 Zrotation Xrotation Yrotation
                  JOINT RightHandThumb2
                  {
                    OFFSET -3.41299 -1.12099 2.5732
                    CHANNELS 3 Zrotation Xrotation Yrotation
                    JOINT RightHandThumb3
                    {
                      OFFSET -2.24741 -0.804108 1.6192
                      CHANNELS 3 Zrotation Xrotation Yrotation
                      End Site
                      {
                        OFFSET -1.6527 -0.5689 1.1317
                      }
                    }
                  }
                }
              }
            }
          }
        }
      }
    }
  }
  JOINT RightUpLeg
  {
    OFFSET -9.1966 3.8861 -0.7581
    CHANNELS 3 Zrotation Xrotation Yrotation
    JOINT RightLeg
    {
      OFFSET -0.7359 -41.0265 0
      CHANNELS 3 Zrotation Xrotation Yrotation
      JOINT RightFoot
      {
        OFFSET 0 -40.2855 0
        CHANNELS 3 Zrotation Xrotation Yrotation
        JOINT RightToeBase
        {
          OFFSET 0 -5.6122 11.7359
          CHANNELS 3 Zrotation Xrotation Yrotation
          End Site
          {
            OFFSET 0 0 7.8731
          }
        }
      }
    }
  }
  JOINT LeftUpLeg
  {
    OFFSET 9.1965 3.8864 -0.7581
    CHANNELS 3 Zrotation Xrotation Yrotation
    JOINT LeftLeg
    {
      OFFSET 0.7359 -41.0268 0
      CHANNELS 3 Zrotation Xrotation Yrotation
      JOINT LeftFoot
      {
        OFFSET 0 -40.2855 0
        CHANNELS 3 Zrotation Xrotation Yrotation
        JOINT LeftToeBase
        {
          OFFSET 0 -5.6122 11.7359
          CHANNELS 3 Zrotation Xrotation Yrotation
          End Site
          {
            OFFSET 0 0 7.8731
          }
        }
      }
    }
  }
}
MOTION
Frames:	4
Frame Time:	0.0333333
0.176366 2.67886 6.33202 -180 -89.9981 -180 -0.0976852 8.55889 -0.151898 -0.175106 17.118 -0.293854 -0.175106 17.118 -0.293854 -5.32921 1.33359 -46.8889 0.240796 10.2934 8.78505 -7.6933 5.80824 12.9851 -71.0475 3.15143 28.826 33.4293 6.87927 -74.2591 -0.366506 24.3504 -8.10861 5.96354e-016 6.21202e-015 -3.18055e-015 -3.59747e-006 -8.6102e-007 8.88604e-007 -2.33069e-006 2.02883e-007 5.98218e-007 5.96354e-016 6.21202e-015 -3.18055e-015 -0.0146034 -8.93825e-005 -2.02864e-007 -2.33068e-006 2.02806e-007 5.98246e-007 5.96354e-016 6.21202e-015 -3.18055e-015 -0.0187452 -0.00117911 5.32872e-005 -2.33068e-006 2.02786e-007 5.98275e-007 5.96354e-016 6.21202e-015 -3.18055e-015 -0.0122734 -0.00325027 0.000688555 -2.33067e-006 2.02833e-007 5.98306e-007 5.96354e-016 6.21202e-015 -3.18055e-015 -3.59747e-006 -8.6102e-007 8.88604e-007 -2.33069e-006 2.02883e-007 5.98218e-007 6.47659 0.0381503 7.47894 57.8806 30.3952 25.3024 40.3286 -8.35678 50.0188 -15.0207 3.16224 -7.42305 3.18055e-015 -1.59028e-015 -7.95139e-016 6.36111e-015 3.18055e-015 7.95139e-016 -3.18055e-015 2.38542e-015 -0 3.18055e-015 -1.59028e-015 -7.95139e-016 0.0150059 -8.99529e-005 -7.37824e-007 4.41391e-032 -3.18055e-015 7.95139e-016 3.18055e-015 -1.59028e-015 -7.95139e-016 0.0190036 -0.00119455 -5.92437e-005 -3.18055e-015 0 -1.59028e-015 3.18055e-015 -1.59028e-015 -7.95139e-016 0.0122549 -0.0032482 -0.000676602 3.18055e-015 -2.78299e-015 -7.95139e-016 3.18055e-015 -1.59028e-015 -7.95139e-016 6.36111e-015 3.18055e-015 7.95139e-016 -3.18055e-015 2.38542e-015 -0 -46.815 -40.9689 -14.3669 172.321 74.219 -176.222 -36.6671 32.9067 55.6612 1.84019e-007 -2.77006e-006 2.14059e-007 17.3192 -37.666 -5.22441 -168.3 61.3436 172.951 20.4451 -9.65486 3.62409 -1.59028e-015 3.18055e-015 6.36111e-015 
0.176608 2.67888 6.33207 -180 -89.9981 -180 -0.0933094 8.66146 -0.152485 -0.165883 17.3231 -0.295674 -0.165883 17.3232 -0.295674 -4.91961 1.75386 -46.8963 0.218774 9.72235 8.79919 -7.68401 5.45147 12.7463 -71.0475 3.15141 28.826 33.4293 6.87926 -74.2591 -0.235929 24.1754 -8.09603 1.19271e-015 3.18055e-015 3.18055e-015 3.97569e-016 -3.52843e-015 1.59028e-015 5.96354e-016 -6.80837e-015 -1.59028e-015 1.19271e-015 3.18055e-015 3.18055e-015 -0.0146034 -8.72659e-005 -5.1349e-006 -3.97569e-016 -5.1684e-015 3.18055e-015 1.19271e-015 3.18055e-015 3.18055e-015 -0.0187418 -0.00117777 5.80684e-005 -1.31254e-007 6.21971e-008 -8.30476e-007 1.19271e-015 3.18055e-015 3.18055e-015 -0.012274 -0.00324855 0.000678245 1.31828e-007 -6.23302e-008 8.30531e-007 1.19271e-015 3.18055e-015 3.18055e-015 3.97569e-016 -3.52843e-015 1.59028e-015 5.96354e-016 -6.80837e-015 -1.59028e-015 6.28429 -0.454081 7.50168 57.8806 30.3952 25.3024 40.362 -7.75728 50.8846 -15.9953 3.21364 -7.46367 3.18055e-015 4.37326e-015 1.59028e-015 0 2.78299e-015 -0 -6.06912e-032 4.37326e-015 7.95139e-016 3.18055e-015 4.37326e-015 1.59028e-015 0.0149867 -8.97764e-005 -3.74034e-007 3.18055e-015 -3.97569e-016 -0 3.18055e-015 4.37326e-015 1.59028e-015 0.0190064 -0.00119176 -6.12098e-005 3.18055e-015 7.95139e-016 -0 3.18055e-015 4.37326e-015 1.59028e-015 0.0122829 -0.00324997 -0.000680188 -6.36111e-015 1.98785e-015 -7.95139e-016 3.18055e-015 4.37326e-015 1.59028e-015 0 2.78299e-015 -0 -6.06912e-032 4.37326e-015 7.95139e-016 -46.488 -41.0355 -13.9528 172.32 74.219 -176.219 -36.309 33.0345 55.485 1.78679e-008 4.90457e-009 -1.05097e-007 16.8372 -37.6565 -5.71406 -168.3 61.3428 172.954 20.1051 -9.533 3.84363 2.00085e-006 1.23307e-006 -5.47572e-007 
0.176849 2.67891 6.33213 -180 -89.9981 -180 -0.0889267 8.76412 -0.15304 -0.156641 17.5285 -0.297448 -0.156641 17.5285 -0.297448 -4.50954 2.17454 -46.9065 0.196939 9.15104 8.81308 -7.67621 5.09459 12.5077 -71.0475 3.15141 28.826 33.4293 6.87927 -74.2591 -0.10546 24.0004 -8.08303 -5.96354e-016 5.96354e-016 -0 -1.39149e-015 -2.48481e-015 -0 1.19271e-015 7.95139e-016 -0 -5.96354e-016 5.96354e-016 -0 -0.0146098 -9.03599e-005 6.1086e-007 1.19271e-015 -6.4605e-015 3.18055e-015 -5.96354e-016 5.96354e-016 -0 -0.0187694 -0.00117847 6.37179e-005 9.93923e-016 -1.2424e-015 3.18055e-015 -5.96354e-016 5.96354e-016 -0 -0.0122569 -0.00324724 0.000668917 9.93923e-016 -1.19768e-014 -1.59028e-015 -5.96354e-016 5.96354e-016 -0 -1.39149e-015 -2.48481e-015 -0 1.19271e-015 7.95139e-016 -0 6.09211 -0.946545 7.52277 57.8806 30.3952 25.3024 40.3862 -7.15659 51.7499 -16.9709 3.2658 -7.50346 -9.54166e-015 -1.07344e-014 1.59028e-015 2.538e-031 -9.14409e-015 1.59028e-015 -3.18055e-015 -1.23246e-014 3.18055e-015 -9.54166e-015 -1.07344e-014 1.59028e-015 0.0149992 -9.28917e-005 -2.30508e-006 -6.36111e-015 -4.77083e-015 1.59028e-015 -9.54166e-015 -1.07344e-014 1.59028e-015 0.018997 -0.00119155 -6.2611e-005 -3.18055e-015 -1.59028e-015 -3.18055e-015 -9.54166e-015 -1.07344e-014 1.59028e-015 0.0122503 -0.0032408 -0.000671805 -5.28919e-007 -2.02925e-007 -2.3917e-006 -9.54166e-015 -1.07344e-014 1.59028e-015 2.538e-031 -9.14409e-015 1.59028e-015 -3.18055e-015 -1.23246e-014 3.18055e-015 -46.1597 -41.1004 -13.5376 172.32 74.2189 -176.216 -35.9499 33.1614 55.3076 1.78678e-008 4.90321e-009 -1.05097e-007 16.3552 -37.6442 -6.20369 -168.301 61.3417 172.957 19.7646 -9.41232 4.06388 1.61706e-006 -3.83912e-007 -2.29679e-007 
0.177089 2.67894 6.33219 -180 -89.9981 -180 -0.0845379 8.86692 -0.153561 -0.147382 17.734 -0.299176 -0.147382 17.734 -0.299176 -4.09945 2.59461 -46.9199 0.175252 8.57959 8.82674 -7.66992 4.73765 12.2692 -71.0475 3.15143 28.8259 33.4293 6.87929 -74.2591 0.0248598 23.8254 -8.0696 2.33063e-006 -2.03846e-007 -5.9811e-007 -2.45524e-031 8.84592e-015 1.59028e-015 3.59786e-006 8.59545e-007 -8.88199e-007 2.33063e-006 -2.03846e-007 -5.9811e-007 -0.0146065 -9.21795e-005 4.03631e-007 3.46696e-006 9.21584e-007 -1.7214e-006 2.33063e-006 -2.03846e-007 -5.9811e-007 -0.0187497 -0.0011788 5.92655e-005 3.5978e-006 8.59685e-007 -8.88095e-007 2.33063e-006 -2.03846e-007 -5.9811e-007 -0.0122993 -0.0032572 0.000679872 3.46673e-006 9.21794e-007 -1.72157e-006 2.33063e-006 -2.03846e-007 -5.9811e-007 -2.45524e-031 8.84592e-015 1.59028e-015 3.59786e-006 8.59545e-007 -8.88199e-007 5.90004 -1.43916 7.54221 57.8806 30.3952 25.3024 40.4013 -6.55502 52.6146 -17.9474 3.31865 -7.54236 -1.36087e-006 -5.77836e-007 -4.3678e-006 -4.54523e-007 -2.01773e-007 -2.47395e-006 2.64834e-031 4.77083e-015 -3.18055e-015 -1.36087e-006 -5.77836e-007 -4.3678e-006 0.0149915 -9.52819e-005 -7.51126e-006 3.18055e-015 -1.59028e-015 -0 -1.36087e-006 -5.77836e-007 -4.3678e-006 0.0189929 -0.00118866 -5.97231e-005 9.54166e-015 -5.1684e-015 7.95139e-015 -1.36087e-006 -5.77836e-007 -4.3678e-006 0.0122726 -0.00324855 -0.000675036 -6.36111e-015 7.95139e-016 -3.18055e-015 -1.36087e-006 -5.77836e-007 -4.3678e-006 -4.54523e-007 -2.01773e-007 -2.47395e-006 2.64834e-031 4.77083e-015 -3.18055e-015 -45.8308 -41.1635 -13.1216 172.32 74.2189 -176.213 -35.5898 33.2873 55.1289 3.80957e-007 -1.69272e-006 3.08333e-007 15.8733 -37.6286 -6.69318 -168.301 61.3406 172.96 19.4236 -9.29287 4.28485 4.24667e-007 -4.49324e-007 1.78598e-006 
